<svg version="1.1" xmlns="http://www.w3.org/2000/svg" xmlns:xlink="http://www.w3.org/1999/xlink" width="377" height="318"><defs></defs><g><g transform="translate(-478,-398) scale(1,1)"><rect fill="#C0C0C0" stroke="none" x="508" y="415" width="98.44091796875" height="44" opacity="0.2"></rect></g><g transform="translate(-478,-398) scale(1,1)"><rect fill="#ffffff" stroke="none" x="501" y="408" width="98.44091796875" height="44"></rect></g><g transform="translate(-478,-398) scale(1,1)"><path fill="none" stroke="#000000" d="M 501 408 L 599.44091796875 408 L 599.44091796875 452 L 501 452 L 501 408 Z Z" stroke-miterlimit="10"></path></g><g transform="translate(-478,-398) scale(1,1)"><rect fill="#ffffff" stroke="none" x="491" y="415" width="20" height="10"></rect></g><g transform="translate(-478,-398) scale(1,1)"><path fill="none" stroke="#000000" d="M 491 415 L 511 415 L 511 425 L 491 425 L 491 415 Z Z" stroke-miterlimit="10"></path></g><g transform="translate(-478,-398) scale(1,1)"><rect fill="#ffffff" stroke="none" x="491" y="435" width="20" height="10"></rect></g><g transform="translate(-478,-398) scale(1,1)"><path fill="none" stroke="#000000" d="M 491 435 L 511 435 L 511 445 L 491 445 L 491 435 Z Z" stroke-miterlimit="10"></path></g><g transform="translate(-478,-398) scale(1,1)"><g><path fill="none" stroke="none"></path><text fill="#000000" stroke="none" font-family="Arial" font-size="13px" font-style="normal" font-weight="bold" text-decoration="none" x="540.720458984375" y="427.5">Rails</text></g></g><g transform="translate(-478,-398) scale(1,1)"><path fill="#C0C0C0" stroke="none" d="M 538.9 639 L 566.34 639 L 578.1 650.76 L 578.1 688 L 538.9 688" opacity="0.2"></path></g><g transform="translate(-478,-398) scale(1,1)"><path fill="#ffffff" stroke="none" d="M 531.9 632 L 559.34 632 L 571.1 643.76 L 571.1 681 L 531.9 681"></path></g><g transform="translate(-478,-398) scale(1,1)"><path fill="none" stroke="#000000" d="M 531.9 632 L 559.34 632 L 571.1 643.76 L 571.1 681 L 531.9 681 L 531.9 632" stroke-miterlimit="10"></path></g><g transform="translate(-478,-398) scale(1,1)"><path fill="none" stroke="#000000" d="M 559.34 632 L 559.34 643.76 L 571.1 643.76 L 559.34 632" stroke-miterlimit="10"></path></g><g transform="translate(-478,-398) scale(1,1)"><g><path fill="none" stroke="none"></path><text fill="#000000" stroke="none" font-family="Arial" font-size="13px" font-style="normal" font-weight="bold" text-decoration="none" x="497" y="700.5">Base de reagentes</text></g></g><g transform="translate(-478,-398) scale(1,1)"><rect fill="#C0C0C0" stroke="none" x="508" y="559" width="98.44091796875" height="44" opacity="0.2"></rect></g><g transform="translate(-478,-398) scale(1,1)"><rect fill="#ffffff" stroke="none" x="501" y="552" width="98.44091796875" height="44"></rect></g><g transform="translate(-478,-398) scale(1,1)"><path fill="none" stroke="#000000" d="M 501 552 L 599.44091796875 552 L 599.44091796875 596 L 501 596 L 501 552 Z Z" stroke-miterlimit="10"></path></g><g transform="translate(-478,-398) scale(1,1)"><rect fill="#ffffff" stroke="none" x="491" y="559" width="20" height="10"></rect></g><g transform="translate(-478,-398) scale(1,1)"><path fill="none" stroke="#000000" d="M 491 559 L 511 559 L 511 569 L 491 569 L 491 559 Z Z" stroke-miterlimit="10"></path></g><g transform="translate(-478,-398) scale(1,1)"><rect fill="#ffffff" stroke="none" x="491" y="579" width="20" height="10"></rect></g><g transform="translate(-478,-398) scale(1,1)"><path fill="none" stroke="#000000" d="M 491 579 L 511 579 L 511 589 L 491 589 L 491 579 Z Z" stroke-miterlimit="10"></path></g><g transform="translate(-478,-398) scale(1,1)"><g><path fill="none" stroke="none"></path><text fill="#000000" stroke="none" font-family="Arial" font-size="13px" font-style="normal" font-weight="bold" text-decoration="none" x="521.220458984375" y="571.5">Open Babel</text></g></g><g transform="translate(-478,-398) scale(1,1)"><rect fill="#C0C0C0" stroke="none" x="735" y="519" width="98.44091796875" height="44" opacity="0.2"></rect></g><g transform="translate(-478,-398) scale(1,1)"><rect fill="#ffffff" stroke="none" x="728" y="512" width="98.44091796875" height="44"></rect></g><g transform="translate(-478,-398) scale(1,1)"><path fill="none" stroke="#000000" d="M 728 512 L 826.44091796875 512 L 826.44091796875 556 L 728 556 L 728 512 Z Z" stroke-miterlimit="10"></path></g><g transform="translate(-478,-398) scale(1,1)"><rect fill="#ffffff" stroke="none" x="718" y="519" width="20" height="10"></rect></g><g transform="translate(-478,-398) scale(1,1)"><path fill="none" stroke="#000000" d="M 718 519 L 738 519 L 738 529 L 718 529 L 718 519 Z Z" stroke-miterlimit="10"></path></g><g transform="translate(-478,-398) scale(1,1)"><rect fill="#ffffff" stroke="none" x="718" y="539" width="20" height="10"></rect></g><g transform="translate(-478,-398) scale(1,1)"><path fill="none" stroke="#000000" d="M 718 539 L 738 539 L 738 549 L 718 549 L 718 539 Z Z" stroke-miterlimit="10"></path></g><g transform="translate(-478,-398) scale(1,1)"><g><path fill="none" stroke="none"></path><text fill="#000000" stroke="none" font-family="Arial" font-size="13px" font-style="normal" font-weight="bold" text-decoration="none" x="745.720458984375" y="531.5">Zinc Reactor</text></g></g><g transform="translate(-478,-398) scale(1,1)"><rect fill="#C0C0C0" stroke="none" x="735" y="647" width="98.44091796875" height="44" opacity="0.2"></rect></g><g transform="translate(-478,-398) scale(1,1)"><rect fill="#ffffff" stroke="none" x="728" y="640" width="98.44091796875" height="44"></rect></g><g transform="translate(-478,-398) scale(1,1)"><path fill="none" stroke="#000000" d="M 728 640 L 826.44091796875 640 L 826.44091796875 684 L 728 684 L 728 640 Z Z" stroke-miterlimit="10"></path></g><g transform="translate(-478,-398) scale(1,1)"><rect fill="#ffffff" stroke="none" x="718" y="647" width="20" height="10"></rect></g><g transform="translate(-478,-398) scale(1,1)"><path fill="none" stroke="#000000" d="M 718 647 L 738 647 L 738 657 L 718 657 L 718 647 Z Z" stroke-miterlimit="10"></path></g><g transform="translate(-478,-398) scale(1,1)"><rect fill="#ffffff" stroke="none" x="718" y="667" width="20" height="10"></rect></g><g transform="translate(-478,-398) scale(1,1)"><path fill="none" stroke="#000000" d="M 718 667 L 738 667 L 738 677 L 718 677 L 718 667 Z Z" stroke-miterlimit="10"></path></g><g transform="translate(-478,-398) scale(1,1)"><g><path fill="none" stroke="none"></path><text fill="#000000" stroke="none" font-family="Arial" font-size="13px" font-style="normal" font-weight="bold" text-decoration="none" x="765.220458984375" y="659.5">RDKit</text></g></g><g transform="translate(-478,-398) scale(1,1)"><path fill="#C0C0C0" stroke="none" d="M 540.7099609375 498.5 C 540.7099609375 492.1487248 545.8586857375 487 552.2099609375 487 C 558.5612361375 487 563.7099609375 492.1487248 563.7099609375 498.5 C 563.7099609375 504.8512752 558.5612361375 510 552.2099609375 510 C 545.8586857375 510 540.7099609375 504.8512752 540.7099609375 498.5 Z" opacity="0.2"></path></g><g transform="translate(-478,-398) scale(1,1)"><path fill="none" stroke="#000000" d="M 556.5 491 A 11.5 11.5 0 0 1 533.5 491" stroke-miterlimit="10"></path></g><g transform="translate(-478,-398) scale(1,1)"><path fill="#ffffff" stroke="none" d="M 536.7099609375 491.5 C 536.7099609375 486.8055792 540.5155401375 483 545.2099609375 483 C 549.9043817375 483 553.7099609375 486.8055792 553.7099609375 491.5 C 553.7099609375 496.1944208 549.9043817375 500 545.2099609375 500 C 540.5155401375 500 536.7099609375 496.1944208 536.7099609375 491.5 Z"></path></g><g transform="translate(-478,-398) scale(1,1)"><path fill="none" stroke="#000000" d="M 536.7099609375 491.5 C 536.7099609375 486.8055792 540.5155401375 483 545.2099609375 483 C 549.9043817375 483 553.7099609375 486.8055792 553.7099609375 491.5 C 553.7099609375 496.1944208 549.9043817375 500 545.2099609375 500 C 540.5155401375 500 536.7099609375 496.1944208 536.7099609375 491.5 Z" stroke-miterlimit="10"></path></g><g transform="translate(-478,-398) scale(1,1)"><g><path fill="none" stroke="none"></path><text fill="#000000" stroke="none" font-family="Arial" font-size="13px" font-style="normal" font-weight="bold" text-decoration="none" x="521.7099609375" y="522.5">Rubabel</text></g></g><g transform="translate(-478,-398) scale(1,1)"><path fill="none" stroke="#000000" d="M 545 453 L 545 480" stroke-miterlimit="10"></path></g><g transform="translate(-478,-398) scale(1,1)"><path fill="none" stroke="#000000" d="M 545 551 L 545 503" stroke-miterlimit="10"></path></g><g transform="translate(-478,-398) scale(1,1)"><path fill="none" stroke="#000000" d="M 546 597 L 549 631" stroke-miterlimit="10" stroke-dasharray="3"></path></g><g transform="translate(-478,-398) scale(1,1)"><path fill="none" stroke="#000000" d="M 543.913537492981 621.2466467733045 L 549 631 L 552.2999900749398 620.5066656631317" stroke-miterlimit="10"></path></g><g transform="translate(-478,-398) scale(1,1)"><path fill="none" stroke="#000000" d="M 772 557 L 772 576" stroke-miterlimit="10"></path></g><g transform="translate(-478,-398) scale(1,1)"><path fill="#C0C0C0" stroke="none" d="M 768 594.5 C 768 588.1487248 773.1487248 583 779.5 583 C 785.8512752 583 791 588.1487248 791 594.5 C 791 600.8512752 785.8512752 606 779.5 606 C 773.1487248 606 768 600.8512752 768 594.5 Z" opacity="0.2"></path></g><g transform="translate(-478,-398) scale(1,1)"><path fill="none" stroke="#000000" d="M 783.5 587 A 11.5 11.5 0 0 1 760.5 587" stroke-miterlimit="10"></path></g><g transform="translate(-478,-398) scale(1,1)"><path fill="#ffffff" stroke="none" d="M 764 587.5 C 764 582.8055792 767.8055792 579 772.5 579 C 777.1944208 579 781 582.8055792 781 587.5 C 781 592.1944208 777.1944208 596 772.5 596 C 767.8055792 596 764 592.1944208 764 587.5 Z"></path></g><g transform="translate(-478,-398) scale(1,1)"><path fill="none" stroke="#000000" d="M 764 587.5 C 764 582.8055792 767.8055792 579 772.5 579 C 777.1944208 579 781 582.8055792 781 587.5 C 781 592.1944208 777.1944208 596 772.5 596 C 767.8055792 596 764 592.1944208 764 587.5 Z" stroke-miterlimit="10"></path></g><g transform="translate(-478,-398) scale(1,1)"><g><path fill="none" stroke="none"></path><text fill="#000000" stroke="none" font-family="Arial" font-size="13px" font-style="normal" font-weight="bold" text-decoration="none" x="739.5" y="618.5">Python API</text></g></g><g transform="translate(-478,-398) scale(1,1)"><path fill="none" stroke="#000000" d="M 772 639 L 772 599" stroke-miterlimit="10"></path></g><g transform="translate(-478,-398) scale(1,1)"><path fill="#C0C0C0" stroke="none" d="M 769.5 442.5 C 769.5 436.1487248 774.6487248 431 781 431 C 787.3512752 431 792.5 436.1487248 792.5 442.5 C 792.5 448.8512752 787.3512752 454 781 454 C 774.6487248 454 769.5 448.8512752 769.5 442.5 Z" opacity="0.2"></path></g><g transform="translate(-478,-398) scale(1,1)"><path fill="none" stroke="#000000" d="M 785.4960200725577 435.3025268440146 A 11.5 11.5 0 0 1 762.5039799274423 434.6974731559854" stroke-miterlimit="10"></path></g><g transform="translate(-478,-398) scale(1,1)"><path fill="#ffffff" stroke="none" d="M 765.5 435.5 C 765.5 430.8055792 769.3055792 427 774 427 C 778.6944208 427 782.5 430.8055792 782.5 435.5 C 782.5 440.1944208 778.6944208 444 774 444 C 769.3055792 444 765.5 440.1944208 765.5 435.5 Z"></path></g><g transform="translate(-478,-398) scale(1,1)"><path fill="none" stroke="#000000" d="M 765.5 435.5 C 765.5 430.8055792 769.3055792 427 774 427 C 778.6944208 427 782.5 430.8055792 782.5 435.5 C 782.5 440.1944208 778.6944208 444 774 444 C 769.3055792 444 765.5 440.1944208 765.5 435.5 Z" stroke-miterlimit="10"></path></g><g transform="translate(-478,-398) scale(1,1)"><g><path fill="none" stroke="none"></path><text fill="#000000" stroke="none" font-family="Arial" font-size="13px" font-style="normal" font-weight="bold" text-decoration="none" x="712.5" y="466.5">Chamada de sistema</text></g></g><g transform="translate(-478,-398) scale(1,1)"><path fill="none" stroke="#000000" d="M 773 511 L 773.6842105263158 447" stroke-miterlimit="10"></path></g><g transform="translate(-478,-398) scale(1,1)"><path fill="none" stroke="#000000" d="M 600 434 L 762.5 436.11805555555554" stroke-miterlimit="10"></path></g></g></svg>